# xmcd CD database file
#
# Track frame offsets:
#	150
#	10924
#	22979
#	32815
#	44622
#	59551
#	73053
#	84828
#	96794
#	110207
#	122033
#	134275
#	145441
#	155996
#	166975
#	175105
#	188831
#	202238
#	220713
#	231292
#
# Disc length: 3253 seconds
#
# Revision: 10
# Processed by: cddbd v1.5.2PL0 Copyright (c) Steve Scherf et al.
# Submitted via: CDex 1.95
#
DISCID=2a0cb314
DTITLE=Various Artist - Great Country Hits Vol8 CD2
DYEAR=1999
DGENRE=Oldies
TTITLE0=Barbara Mandrell - Break My Mind
TTITLE1=Conway Twitty - To See My Angel Cry
TTITLE2=Bob Wills - Buffalo Twist
TTITLE3=Gail Davies - I'll Be Your Baby
TTITLE4=Atlanta - Good Time Chariot
TTITLE5=Anne Murray - Another Sleepless Night
TTITLE6=Jim Reeves - Your Old Love Letters
TTITLE7=Connie Smith - Once A Day
TTITLE8=Danny Davis and Nashville Brass - In The Mood
TTITLE9=Don Williams and Emmylou Harris - On Her Way To Being A Woman
TTITLE10=Kitty Wells - Password
TTITLE11=Frankie Laine - Rose, Rose I Love You
TTITLE12=Willie Nelson - I Feel Sorry For Him
TTITLE13=Rex Allen Jr - It's Over
TTITLE14=Glen Yarborough - My Mule Sal
TTITLE15=George Jones - Hearts In My Dream
TTITLE16=Jennifer Weatherly - In The Name Of Love
TTITLE17=Nitti Gritty Dirt Band - Mr. Bojangles
TTITLE18=Jackson Stonewall - Should I Go Home
TTITLE19=Freddy Fender - Going Out With The Tide
EXTD=YEAR: 1999
EXTT0=
EXTT1=
EXTT2=
EXTT3=
EXTT4=
EXTT5=
EXTT6=
EXTT7=
EXTT8=
EXTT9=
EXTT10=
EXTT11=
EXTT12=
EXTT13=
EXTT14=
EXTT15=
EXTT16=
EXTT17=
EXTT18=
EXTT19=
PLAYORDER=
